<mxfile host="app.diagrams.net" agent="Mozilla/5.0 (Windows NT 10.0; Win64; x64) AppleWebKit/537.36 (KHTML, like Gecko) Chrome/134.0.0.0 Safari/537.36" version="26.1.3">
  <diagram name="Page-1" id="WoRfIgXZ7IXVE7NbKtxp">
    <mxGraphModel dx="1434" dy="772" grid="1" gridSize="10" guides="1" tooltips="1" connect="1" arrows="1" fold="1" page="1" pageScale="1" pageWidth="827" pageHeight="1169" math="0" shadow="0">
      <root>
        <mxCell id="0" />
        <mxCell id="1" parent="0" />
        <mxCell id="Ie9cExJiKf0ZYBR4mteG-31" style="edgeStyle=orthogonalEdgeStyle;rounded=0;orthogonalLoop=1;jettySize=auto;html=1;entryX=0.5;entryY=0;entryDx=0;entryDy=0;" parent="1" source="Ie9cExJiKf0ZYBR4mteG-1" target="Ie9cExJiKf0ZYBR4mteG-44" edge="1">
          <mxGeometry relative="1" as="geometry">
            <mxPoint x="490" y="220" as="targetPoint" />
            <Array as="points">
              <mxPoint x="175" y="190" />
              <mxPoint x="175" y="190" />
            </Array>
          </mxGeometry>
        </mxCell>
        <mxCell id="Ie9cExJiKf0ZYBR4mteG-1" value="" style="ellipse;html=1;shape=startState;fillColor=#000000;strokeColor=#ff0000;" parent="1" vertex="1">
          <mxGeometry x="160" y="120" width="30" height="30" as="geometry" />
        </mxCell>
        <mxCell id="Ie9cExJiKf0ZYBR4mteG-30" value="Search&lt;div&gt;Exhibit&lt;/div&gt;" style="rhombus;whiteSpace=wrap;html=1;" parent="1" vertex="1">
          <mxGeometry x="115" y="355" width="120" height="80" as="geometry" />
        </mxCell>
        <mxCell id="Ie9cExJiKf0ZYBR4mteG-39" style="edgeStyle=orthogonalEdgeStyle;rounded=0;orthogonalLoop=1;jettySize=auto;html=1;entryX=1;entryY=0.5;entryDx=0;entryDy=0;" parent="1" source="Ie9cExJiKf0ZYBR4mteG-33" target="Ie9cExJiKf0ZYBR4mteG-34" edge="1">
          <mxGeometry relative="1" as="geometry">
            <mxPoint x="410" y="665" as="targetPoint" />
            <Array as="points">
              <mxPoint x="410" y="540" />
              <mxPoint x="411" y="540" />
              <mxPoint x="411" y="665" />
            </Array>
          </mxGeometry>
        </mxCell>
        <mxCell id="Ie9cExJiKf0ZYBR4mteG-33" value="Select Exhibit&lt;div&gt;from map&lt;/div&gt;" style="html=1;align=center;verticalAlign=top;rounded=1;absoluteArcSize=1;arcSize=10;dashed=0;whiteSpace=wrap;" parent="1" vertex="1">
          <mxGeometry x="340" y="375" width="140" height="40" as="geometry" />
        </mxCell>
        <mxCell id="Ie9cExJiKf0ZYBR4mteG-50" style="edgeStyle=orthogonalEdgeStyle;rounded=0;orthogonalLoop=1;jettySize=auto;html=1;entryX=0;entryY=0.5;entryDx=0;entryDy=0;exitX=0.393;exitY=0.875;exitDx=0;exitDy=0;exitPerimeter=0;" parent="1" source="Ie9cExJiKf0ZYBR4mteG-34" target="Ie9cExJiKf0ZYBR4mteG-48" edge="1">
          <mxGeometry relative="1" as="geometry">
            <mxPoint x="185" y="800" as="targetPoint" />
            <mxPoint x="170" y="690" as="sourcePoint" />
            <Array as="points">
              <mxPoint x="170" y="790" />
            </Array>
          </mxGeometry>
        </mxCell>
        <mxCell id="Ie9cExJiKf0ZYBR4mteG-34" value="Display information" style="html=1;align=center;verticalAlign=top;rounded=1;absoluteArcSize=1;arcSize=10;dashed=0;whiteSpace=wrap;" parent="1" vertex="1">
          <mxGeometry x="115" y="645" width="140" height="40" as="geometry" />
        </mxCell>
        <mxCell id="Ie9cExJiKf0ZYBR4mteG-35" value="&lt;div&gt;Exhibit&lt;/div&gt;&lt;div&gt;exists&lt;/div&gt;" style="rhombus;whiteSpace=wrap;html=1;" parent="1" vertex="1">
          <mxGeometry x="115" y="505" width="120" height="80" as="geometry" />
        </mxCell>
        <mxCell id="Ie9cExJiKf0ZYBR4mteG-37" value="no" style="html=1;verticalAlign=bottom;labelBackgroundColor=none;endArrow=open;endFill=0;rounded=0;entryX=0;entryY=0.5;entryDx=0;entryDy=0;" parent="1" target="Ie9cExJiKf0ZYBR4mteG-33" edge="1">
          <mxGeometry width="160" relative="1" as="geometry">
            <mxPoint x="235" y="394.5" as="sourcePoint" />
            <mxPoint x="395" y="394.5" as="targetPoint" />
          </mxGeometry>
        </mxCell>
        <mxCell id="Ie9cExJiKf0ZYBR4mteG-38" value="yes" style="html=1;verticalAlign=bottom;labelBackgroundColor=none;endArrow=open;endFill=0;rounded=0;entryX=0.5;entryY=0;entryDx=0;entryDy=0;exitX=0.5;exitY=1;exitDx=0;exitDy=0;" parent="1" source="Ie9cExJiKf0ZYBR4mteG-30" target="Ie9cExJiKf0ZYBR4mteG-35" edge="1">
          <mxGeometry x="-0.4286" y="15" width="160" relative="1" as="geometry">
            <mxPoint x="245" y="404.5" as="sourcePoint" />
            <mxPoint x="350" y="405" as="targetPoint" />
            <Array as="points">
              <mxPoint x="175" y="465" />
            </Array>
            <mxPoint as="offset" />
          </mxGeometry>
        </mxCell>
        <mxCell id="Ie9cExJiKf0ZYBR4mteG-41" value="no" style="html=1;verticalAlign=bottom;labelBackgroundColor=none;endArrow=open;endFill=0;rounded=0;exitX=1;exitY=0.5;exitDx=0;exitDy=0;entryX=0.574;entryY=1.062;entryDx=0;entryDy=0;entryPerimeter=0;" parent="1" source="Ie9cExJiKf0ZYBR4mteG-35" target="L17tEOdWh0pDIh4ecxEQ-1" edge="1">
          <mxGeometry x="-0.8077" y="5" width="160" relative="1" as="geometry">
            <mxPoint x="230" y="544.5" as="sourcePoint" />
            <mxPoint x="370" y="490" as="targetPoint" />
            <Array as="points">
              <mxPoint x="330" y="545" />
            </Array>
            <mxPoint as="offset" />
          </mxGeometry>
        </mxCell>
        <mxCell id="Ie9cExJiKf0ZYBR4mteG-42" value="yes" style="html=1;verticalAlign=bottom;labelBackgroundColor=none;endArrow=open;endFill=0;rounded=0;entryX=0.421;entryY=-0.005;entryDx=0;entryDy=0;exitX=0.5;exitY=1;exitDx=0;exitDy=0;entryPerimeter=0;" parent="1" target="Ie9cExJiKf0ZYBR4mteG-34" edge="1">
          <mxGeometry x="-0.4286" y="15" width="160" relative="1" as="geometry">
            <mxPoint x="174.5" y="585" as="sourcePoint" />
            <mxPoint x="174.5" y="655" as="targetPoint" />
            <Array as="points">
              <mxPoint x="174.5" y="615" />
            </Array>
            <mxPoint as="offset" />
          </mxGeometry>
        </mxCell>
        <mxCell id="Ie9cExJiKf0ZYBR4mteG-44" value="Online mode" style="rhombus;whiteSpace=wrap;html=1;" parent="1" vertex="1">
          <mxGeometry x="115" y="200" width="120" height="80" as="geometry" />
        </mxCell>
        <mxCell id="Ie9cExJiKf0ZYBR4mteG-45" value="no" style="html=1;verticalAlign=bottom;labelBackgroundColor=none;endArrow=open;endFill=0;rounded=0;entryX=0;entryY=0.5;entryDx=0;entryDy=0;" parent="1" edge="1">
          <mxGeometry width="160" relative="1" as="geometry">
            <mxPoint x="235" y="239.5" as="sourcePoint" />
            <mxPoint x="340" y="240" as="targetPoint" />
          </mxGeometry>
        </mxCell>
        <mxCell id="Ie9cExJiKf0ZYBR4mteG-46" value="yes" style="html=1;verticalAlign=bottom;labelBackgroundColor=none;endArrow=open;endFill=0;rounded=0;entryX=0.5;entryY=0;entryDx=0;entryDy=0;exitX=0.5;exitY=1;exitDx=0;exitDy=0;" parent="1" target="Ie9cExJiKf0ZYBR4mteG-30" edge="1">
          <mxGeometry x="-0.4286" y="15" width="160" relative="1" as="geometry">
            <mxPoint x="174.5" y="280" as="sourcePoint" />
            <mxPoint x="174.5" y="350" as="targetPoint" />
            <Array as="points">
              <mxPoint x="174.5" y="310" />
            </Array>
            <mxPoint as="offset" />
          </mxGeometry>
        </mxCell>
        <mxCell id="Ie9cExJiKf0ZYBR4mteG-51" style="edgeStyle=orthogonalEdgeStyle;rounded=0;orthogonalLoop=1;jettySize=auto;html=1;entryX=1;entryY=0.5;entryDx=0;entryDy=0;" parent="1" source="Ie9cExJiKf0ZYBR4mteG-47" target="Ie9cExJiKf0ZYBR4mteG-48" edge="1">
          <mxGeometry relative="1" as="geometry">
            <mxPoint x="530" y="800" as="targetPoint" />
            <Array as="points">
              <mxPoint x="514" y="240" />
              <mxPoint x="514" y="790" />
            </Array>
          </mxGeometry>
        </mxCell>
        <mxCell id="Ie9cExJiKf0ZYBR4mteG-47" value="Display pre-downloaded&amp;nbsp;&lt;div&gt;information&lt;/div&gt;" style="html=1;align=center;verticalAlign=top;rounded=1;absoluteArcSize=1;arcSize=10;dashed=0;whiteSpace=wrap;" parent="1" vertex="1">
          <mxGeometry x="340" y="220" width="140" height="40" as="geometry" />
        </mxCell>
        <mxCell id="Ie9cExJiKf0ZYBR4mteG-53" style="edgeStyle=orthogonalEdgeStyle;rounded=0;orthogonalLoop=1;jettySize=auto;html=1;entryX=0.5;entryY=0;entryDx=0;entryDy=0;" parent="1" source="Ie9cExJiKf0ZYBR4mteG-48" target="L17tEOdWh0pDIh4ecxEQ-3" edge="1">
          <mxGeometry relative="1" as="geometry" />
        </mxCell>
        <mxCell id="Ie9cExJiKf0ZYBR4mteG-48" value="View exhibit details" style="html=1;align=center;verticalAlign=top;rounded=1;absoluteArcSize=1;arcSize=10;dashed=0;whiteSpace=wrap;" parent="1" vertex="1">
          <mxGeometry x="354" y="770" width="140" height="40" as="geometry" />
        </mxCell>
        <mxCell id="66KeTNih_9efS3hl3MfE-1" value="Exhibit Information - Activity Diagram" style="shape=umlFrame;whiteSpace=wrap;html=1;pointerEvents=0;recursiveResize=0;container=1;collapsible=0;width=160;" parent="1" vertex="1">
          <mxGeometry x="60" y="60" width="670" height="1300" as="geometry" />
        </mxCell>
        <mxCell id="L17tEOdWh0pDIh4ecxEQ-1" value="Display &quot;No results found&quot;" style="html=1;align=center;verticalAlign=top;rounded=1;absoluteArcSize=1;arcSize=10;dashed=0;whiteSpace=wrap;" parent="66KeTNih_9efS3hl3MfE-1" vertex="1">
          <mxGeometry x="190" y="400" width="140" height="40" as="geometry" />
        </mxCell>
        <mxCell id="L17tEOdWh0pDIh4ecxEQ-3" value="&lt;div&gt;Select &quot;More Details&quot;&lt;/div&gt;" style="rhombus;whiteSpace=wrap;html=1;" parent="66KeTNih_9efS3hl3MfE-1" vertex="1">
          <mxGeometry x="296" y="810" width="136" height="80" as="geometry" />
        </mxCell>
        <mxCell id="Ie9cExJiKf0ZYBR4mteG-3" value="" style="ellipse;html=1;shape=endState;fillColor=#000000;strokeColor=#ff0000;" parent="66KeTNih_9efS3hl3MfE-1" vertex="1">
          <mxGeometry x="558" y="1065" width="30" height="30" as="geometry" />
        </mxCell>
        <mxCell id="Ie9cExJiKf0ZYBR4mteG-54" value="no" style="html=1;verticalAlign=bottom;labelBackgroundColor=none;endArrow=open;endFill=0;rounded=0;entryX=0;entryY=0.5;entryDx=0;entryDy=0;" parent="66KeTNih_9efS3hl3MfE-1" target="Ie9cExJiKf0ZYBR4mteG-3" edge="1">
          <mxGeometry width="160" relative="1" as="geometry">
            <mxPoint x="432" y="1080" as="sourcePoint" />
            <mxPoint x="537" y="1094.5" as="targetPoint" />
          </mxGeometry>
        </mxCell>
        <mxCell id="Ie9cExJiKf0ZYBR4mteG-55" value="yes" style="html=1;verticalAlign=bottom;labelBackgroundColor=none;endArrow=open;endFill=0;rounded=0;entryX=0.421;entryY=-0.005;entryDx=0;entryDy=0;exitX=0.5;exitY=1;exitDx=0;exitDy=0;entryPerimeter=0;" parent="66KeTNih_9efS3hl3MfE-1" edge="1">
          <mxGeometry x="-0.4286" y="15" width="160" relative="1" as="geometry">
            <mxPoint x="366.08" y="1120" as="sourcePoint" />
            <mxPoint x="365.58" y="1180" as="targetPoint" />
            <Array as="points">
              <mxPoint x="366.08" y="1150" />
            </Array>
            <mxPoint as="offset" />
          </mxGeometry>
        </mxCell>
        <mxCell id="Ie9cExJiKf0ZYBR4mteG-57" style="edgeStyle=orthogonalEdgeStyle;rounded=0;orthogonalLoop=1;jettySize=auto;html=1;entryX=0.5;entryY=1;entryDx=0;entryDy=0;" parent="66KeTNih_9efS3hl3MfE-1" source="Ie9cExJiKf0ZYBR4mteG-56" target="Ie9cExJiKf0ZYBR4mteG-3" edge="1">
          <mxGeometry relative="1" as="geometry">
            <mxPoint x="360" y="1340" as="targetPoint" />
          </mxGeometry>
        </mxCell>
        <mxCell id="Ie9cExJiKf0ZYBR4mteG-56" value="Play audio transcript" style="html=1;align=center;verticalAlign=top;rounded=1;absoluteArcSize=1;arcSize=10;dashed=0;whiteSpace=wrap;" parent="66KeTNih_9efS3hl3MfE-1" vertex="1">
          <mxGeometry x="290" y="1180" width="140" height="40" as="geometry" />
        </mxCell>
        <mxCell id="Ie9cExJiKf0ZYBR4mteG-52" value="&lt;div&gt;Want to hear&lt;/div&gt;&lt;div&gt;audio transcript?&lt;/div&gt;" style="rhombus;whiteSpace=wrap;html=1;" parent="66KeTNih_9efS3hl3MfE-1" vertex="1">
          <mxGeometry x="298" y="1040" width="136" height="80" as="geometry" />
        </mxCell>
        <mxCell id="L17tEOdWh0pDIh4ecxEQ-6" value="no" style="html=1;verticalAlign=bottom;labelBackgroundColor=none;endArrow=open;endFill=0;rounded=0;entryX=0.5;entryY=0;entryDx=0;entryDy=0;exitX=1;exitY=0.5;exitDx=0;exitDy=0;" parent="66KeTNih_9efS3hl3MfE-1" source="L17tEOdWh0pDIh4ecxEQ-3" target="Ie9cExJiKf0ZYBR4mteG-3" edge="1">
          <mxGeometry x="-0.8266" y="10" width="160" relative="1" as="geometry">
            <mxPoint x="452" y="860" as="sourcePoint" />
            <mxPoint x="578" y="860" as="targetPoint" />
            <Array as="points">
              <mxPoint x="570" y="850" />
            </Array>
            <mxPoint as="offset" />
          </mxGeometry>
        </mxCell>
        <mxCell id="L17tEOdWh0pDIh4ecxEQ-7" value="yes" style="html=1;verticalAlign=bottom;labelBackgroundColor=none;endArrow=open;endFill=0;rounded=0;entryX=0.421;entryY=-0.005;entryDx=0;entryDy=0;exitX=0.5;exitY=1;exitDx=0;exitDy=0;entryPerimeter=0;" parent="66KeTNih_9efS3hl3MfE-1" source="L17tEOdWh0pDIh4ecxEQ-3" edge="1">
          <mxGeometry x="-0.4286" y="15" width="160" relative="1" as="geometry">
            <mxPoint x="364.08" y="890" as="sourcePoint" />
            <mxPoint x="363.58" y="950" as="targetPoint" />
            <Array as="points">
              <mxPoint x="364.08" y="920" />
            </Array>
            <mxPoint as="offset" />
          </mxGeometry>
        </mxCell>
        <mxCell id="L17tEOdWh0pDIh4ecxEQ-10" style="edgeStyle=orthogonalEdgeStyle;rounded=0;orthogonalLoop=1;jettySize=auto;html=1;entryX=0.5;entryY=0;entryDx=0;entryDy=0;" parent="66KeTNih_9efS3hl3MfE-1" source="L17tEOdWh0pDIh4ecxEQ-8" target="Ie9cExJiKf0ZYBR4mteG-52" edge="1">
          <mxGeometry relative="1" as="geometry" />
        </mxCell>
        <mxCell id="L17tEOdWh0pDIh4ecxEQ-8" value="Display additional information" style="html=1;align=center;verticalAlign=top;rounded=1;absoluteArcSize=1;arcSize=10;dashed=0;whiteSpace=wrap;" parent="66KeTNih_9efS3hl3MfE-1" vertex="1">
          <mxGeometry x="296" y="950" width="140" height="40" as="geometry" />
        </mxCell>
        <mxCell id="L17tEOdWh0pDIh4ecxEQ-2" style="edgeStyle=orthogonalEdgeStyle;rounded=0;orthogonalLoop=1;jettySize=auto;html=1;entryX=1;entryY=1;entryDx=0;entryDy=0;" parent="1" source="L17tEOdWh0pDIh4ecxEQ-1" target="Ie9cExJiKf0ZYBR4mteG-30" edge="1">
          <mxGeometry relative="1" as="geometry">
            <Array as="points">
              <mxPoint x="330" y="415" />
            </Array>
          </mxGeometry>
        </mxCell>
      </root>
    </mxGraphModel>
  </diagram>
</mxfile>
